<svg width="48" height="48" viewBox="0 0 48 48" fill="none" xmlns="http://www.w3.org/2000/svg">
<g filter="url(#filter0_d_107_388)">
<circle cx="24" cy="24" r="21" fill="#FFB800"/>
</g>
<path d="M15.8425 32.75H32.1575C33.8258 32.75 34.8658 30.9408 34.0316 29.5L25.8741 15.4058C25.04 13.965 22.96 13.965 22.1258 15.4058L13.9683 29.5C13.1341 30.9408 14.1741 32.75 15.8425 32.75ZM24 25.1667C23.4041 25.1667 22.9166 24.6792 22.9166 24.0833V21.9167C22.9166 21.3208 23.4041 20.8333 24 20.8333C24.5958 20.8333 25.0833 21.3208 25.0833 21.9167V24.0833C25.0833 24.6792 24.5958 25.1667 24 25.1667ZM25.0833 29.5H22.9166V27.3333H25.0833V29.5Z" fill="white"/>
<defs>
<filter id="filter0_d_107_388" x="0" y="0" width="48" height="48" filterUnits="userSpaceOnUse" color-interpolation-filters="sRGB">
<feFlood flood-opacity="0" result="BackgroundImageFix"/>
<feColorMatrix in="SourceAlpha" type="matrix" values="0 0 0 0 0 0 0 0 0 0 0 0 0 0 0 0 0 0 127 0" result="hardAlpha"/>
<feOffset/>
<feGaussianBlur stdDeviation="1.5"/>
<feComposite in2="hardAlpha" operator="out"/>
<feColorMatrix type="matrix" values="0 0 0 0 0.454167 0 0 0 0 0.343955 0 0 0 0 0.0605556 0 0 0 0.25 0"/>
<feBlend mode="normal" in2="BackgroundImageFix" result="effect1_dropShadow_107_388"/>
<feBlend mode="normal" in="SourceGraphic" in2="effect1_dropShadow_107_388" result="shape"/>
</filter>
</defs>
</svg>
