<svg width="346" height="366" viewBox="0 0 346 366" fill="none" xmlns="http://www.w3.org/2000/svg">
<g filter="url(#filter0_d_111_399)">
<circle cx="113" cy="59" r="21" fill="#FFB800"/>
</g>
<path d="M104.842 67.75H121.157C122.826 67.75 123.866 65.9408 123.032 64.5L114.874 50.4058C114.04 48.965 111.96 48.965 111.126 50.4058L102.968 64.5C102.134 65.9408 103.174 67.75 104.842 67.75ZM113 60.1667C112.404 60.1667 111.917 59.6792 111.917 59.0833V56.9167C111.917 56.3208 112.404 55.8333 113 55.8333C113.596 55.8333 114.083 56.3208 114.083 56.9167V59.0833C114.083 59.6792 113.596 60.1667 113 60.1667ZM114.083 64.5H111.917V62.3333H114.083V64.5Z" fill="white"/>
<g filter="url(#filter1_d_111_399)">
<circle cx="177" cy="184" r="21" fill="white"/>
</g>
<path d="M168.842 192.75H185.157C186.826 192.75 187.866 190.941 187.032 189.5L178.874 175.406C178.04 173.965 175.96 173.965 175.126 175.406L166.968 189.5C166.134 190.941 167.174 192.75 168.842 192.75ZM177 185.167C176.404 185.167 175.917 184.679 175.917 184.083V181.917C175.917 181.321 176.404 180.833 177 180.833C177.596 180.833 178.083 181.321 178.083 181.917V184.083C178.083 184.679 177.596 185.167 177 185.167ZM178.083 189.5H175.917V187.333H178.083V189.5Z" fill="#FFB800"/>
<rect width="346" height="366" rx="8" fill="#FFF4BA"/>
<path d="M150.007 167.125C150.007 165.335 150.718 163.618 151.984 162.352C153.25 161.086 154.967 160.375 156.757 160.375H197.257C199.047 160.375 200.764 161.086 202.03 162.352C203.296 163.618 204.007 165.335 204.007 167.125V200.875C204.007 202.665 203.296 204.382 202.03 205.648C200.764 206.914 199.047 207.625 197.257 207.625H156.757C154.967 207.625 153.25 206.914 151.984 205.648C150.718 204.382 150.007 202.665 150.007 200.875V167.125ZM153.382 197.5V200.875C153.382 201.77 153.737 202.629 154.37 203.261C155.003 203.894 155.862 204.25 156.757 204.25H197.257C198.152 204.25 199.01 203.894 199.643 203.261C200.276 202.629 200.632 201.77 200.632 200.875V189.062L187.884 182.491C187.568 182.333 187.21 182.278 186.86 182.334C186.511 182.39 186.188 182.555 185.937 182.805L173.416 195.326L164.438 189.346C164.114 189.13 163.725 189.033 163.338 189.071C162.95 189.109 162.588 189.28 162.312 189.555L153.382 197.5ZM170.257 175.562C170.257 174.22 169.723 172.932 168.774 171.983C167.825 171.033 166.537 170.5 165.194 170.5C163.852 170.5 162.564 171.033 161.615 171.983C160.665 172.932 160.132 174.22 160.132 175.562C160.132 176.905 160.665 178.193 161.615 179.142C162.564 180.092 163.852 180.625 165.194 180.625C166.537 180.625 167.825 180.092 168.774 179.142C169.723 178.193 170.257 176.905 170.257 175.562Z" fill="#FFB800"/>
<defs>
<filter id="filter0_d_111_399" x="89" y="35" width="48" height="48" filterUnits="userSpaceOnUse" color-interpolation-filters="sRGB">
<feFlood flood-opacity="0" result="BackgroundImageFix"/>
<feColorMatrix in="SourceAlpha" type="matrix" values="0 0 0 0 0 0 0 0 0 0 0 0 0 0 0 0 0 0 127 0" result="hardAlpha"/>
<feOffset/>
<feGaussianBlur stdDeviation="1.5"/>
<feComposite in2="hardAlpha" operator="out"/>
<feColorMatrix type="matrix" values="0 0 0 0 0.454167 0 0 0 0 0.343955 0 0 0 0 0.0605556 0 0 0 0.25 0"/>
<feBlend mode="normal" in2="BackgroundImageFix" result="effect1_dropShadow_111_399"/>
<feBlend mode="normal" in="SourceGraphic" in2="effect1_dropShadow_111_399" result="shape"/>
</filter>
<filter id="filter1_d_111_399" x="153" y="160" width="48" height="48" filterUnits="userSpaceOnUse" color-interpolation-filters="sRGB">
<feFlood flood-opacity="0" result="BackgroundImageFix"/>
<feColorMatrix in="SourceAlpha" type="matrix" values="0 0 0 0 0 0 0 0 0 0 0 0 0 0 0 0 0 0 127 0" result="hardAlpha"/>
<feOffset/>
<feGaussianBlur stdDeviation="1.5"/>
<feComposite in2="hardAlpha" operator="out"/>
<feColorMatrix type="matrix" values="0 0 0 0 0.454167 0 0 0 0 0.343955 0 0 0 0 0.0605556 0 0 0 0.25 0"/>
<feBlend mode="normal" in2="BackgroundImageFix" result="effect1_dropShadow_111_399"/>
<feBlend mode="normal" in="SourceGraphic" in2="effect1_dropShadow_111_399" result="shape"/>
</filter>
</defs>
</svg>
