<svg width="16" height="15" viewBox="0 0 16 15" fill="none" xmlns="http://www.w3.org/2000/svg">
<path fill-rule="evenodd" clip-rule="evenodd" d="M7.29725 0.851724C7.48178 0.704159 7.7081 0.618442 7.94409 0.60673C8.18008 0.595018 8.41376 0.657906 8.612 0.786474L8.70275 0.851724L11.9368 3.43922C12.0945 3.56533 12.2252 3.72201 12.321 3.89986C12.4167 4.07772 12.4756 4.27307 12.494 4.47422L12.5 4.60997V13.25H13.25V6.87497C13.25 6.7872 13.2807 6.70221 13.3369 6.63478C13.3931 6.56735 13.4712 6.52177 13.5575 6.50597L13.625 6.49997H14C14.3784 6.49985 14.7429 6.64278 15.0204 6.9001C15.2979 7.15741 15.4679 7.51011 15.4963 7.88747L15.5 7.99997V13.925C15.4999 14.1281 15.4249 14.3241 15.2892 14.4754C15.1536 14.6267 14.967 14.7226 14.765 14.7447L14.675 14.75H1.325C1.12171 14.7501 0.925533 14.6751 0.774109 14.5395C0.622686 14.4038 0.526678 14.2171 0.5045 14.015L0.5 13.925V7.99997C0.49988 7.62154 0.642805 7.25705 0.900123 6.97956C1.15744 6.70208 1.51013 6.53211 1.8875 6.50372L2 6.49997H2.375C2.46277 6.49994 2.54777 6.5307 2.61519 6.58689C2.68262 6.64308 2.7282 6.72114 2.744 6.80747L2.75 6.87497V13.25H3.5V4.60997C3.49999 4.40799 3.54077 4.20808 3.6199 4.02224C3.69903 3.8364 3.81488 3.66845 3.9605 3.52847L4.06325 3.43847L7.29725 0.851724ZM8 5.74922C7.60218 5.74922 7.22064 5.90726 6.93934 6.18856C6.65804 6.46987 6.5 6.8514 6.5 7.24922C6.5 7.64705 6.65804 8.02858 6.93934 8.30988C7.22064 8.59119 7.60218 8.74922 8 8.74922C8.39782 8.74922 8.77936 8.59119 9.06066 8.30988C9.34196 8.02858 9.5 7.64705 9.5 7.24922C9.5 6.8514 9.34196 6.46987 9.06066 6.18856C8.77936 5.90726 8.39782 5.74922 8 5.74922Z" fill="#DDDBD6"/>
</svg>
