<svg width="16" height="12" viewBox="0 0 16 12" fill="none" xmlns="http://www.w3.org/2000/svg">
<path d="M11 9.75V11.25H0.5V9.75C0.5 9.75 0.5 6.75 5.75 6.75C11 6.75 11 9.75 11 9.75ZM8.375 2.625C8.375 2.10582 8.22105 1.5983 7.93261 1.16663C7.64417 0.734946 7.2342 0.398493 6.75454 0.199813C6.27489 0.0011334 5.74709 -0.0508504 5.23789 0.0504358C4.72869 0.151722 4.26096 0.401729 3.89384 0.768842C3.52673 1.13595 3.27673 1.60368 3.17544 2.11288C3.07415 2.62209 3.12614 3.14988 3.32482 3.62954C3.5235 4.1092 3.85995 4.51917 4.29163 4.8076C4.72331 5.09604 5.23082 5.25 5.75 5.25C6.44619 5.25 7.11387 4.97344 7.60616 4.48115C8.09844 3.98887 8.375 3.32119 8.375 2.625ZM10.955 6.75C11.4161 7.10681 11.7933 7.56032 12.0603 8.07863C12.3272 8.59693 12.4773 9.16744 12.5 9.75V11.25H15.5V9.75C15.5 9.75 15.5 7.0275 10.955 6.75ZM10.25 -2.92021e-06C9.73384 -0.00240377 9.22909 0.151895 8.8025 0.442497C9.25808 1.07905 9.50304 1.84221 9.50304 2.625C9.50304 3.40778 9.25808 4.17094 8.8025 4.8075C9.22909 5.0981 9.73384 5.2524 10.25 5.25C10.9462 5.25 11.6139 4.97344 12.1062 4.48115C12.5984 3.98887 12.875 3.32119 12.875 2.625C12.875 1.9288 12.5984 1.26112 12.1062 0.768842C11.6139 0.276559 10.9462 -2.92021e-06 10.25 -2.92021e-06Z" fill="#35332E"/>
</svg>
