<svg width="16" height="15" viewBox="0 0 16 15" fill="none" xmlns="http://www.w3.org/2000/svg">
<path fill-rule="evenodd" clip-rule="evenodd" d="M7.29725 0.851754C7.48178 0.70419 7.7081 0.618473 7.94409 0.606761C8.18008 0.595049 8.41376 0.657936 8.612 0.786504L8.70275 0.851754L11.9368 3.43925C12.0945 3.56536 12.2252 3.72204 12.321 3.89989C12.4167 4.07775 12.4756 4.2731 12.494 4.47425L12.5 4.61V13.25H13.25V6.875C13.25 6.78724 13.2807 6.70224 13.3369 6.63481C13.3931 6.56738 13.4712 6.5218 13.5575 6.506L13.625 6.5H14C14.3784 6.49988 14.7429 6.64281 15.0204 6.90013C15.2979 7.15744 15.4679 7.51014 15.4963 7.8875L15.5 8V13.925C15.4999 14.1282 15.4249 14.3242 15.2892 14.4754C15.1536 14.6267 14.967 14.7226 14.765 14.7448L14.675 14.75H1.325C1.12171 14.7501 0.925533 14.6751 0.774109 14.5395C0.622686 14.4039 0.526678 14.2171 0.5045 14.015L0.5 13.925V8C0.49988 7.62157 0.642805 7.25708 0.900123 6.97959C1.15744 6.70211 1.51013 6.53214 1.8875 6.50375L2 6.5H2.375C2.46277 6.49998 2.54777 6.53073 2.61519 6.58692C2.68262 6.64311 2.7282 6.72117 2.744 6.8075L2.75 6.875V13.25H3.5V4.61C3.49999 4.40802 3.54077 4.20811 3.6199 4.02227C3.69903 3.83643 3.81488 3.66848 3.9605 3.5285L4.06325 3.4385L7.29725 0.851754ZM8 5.74925C7.60218 5.74925 7.22064 5.90729 6.93934 6.18859C6.65804 6.4699 6.5 6.85143 6.5 7.24925C6.5 7.64708 6.65804 8.02861 6.93934 8.30991C7.22064 8.59122 7.60218 8.74925 8 8.74925C8.39782 8.74925 8.77936 8.59122 9.06066 8.30991C9.34196 8.02861 9.5 7.64708 9.5 7.24925C9.5 6.85143 9.34196 6.4699 9.06066 6.18859C8.77936 5.90729 8.39782 5.74925 8 5.74925Z" fill="#35332E"/>
</svg>
