<svg width="16" height="16" viewBox="0 0 16 16" fill="none" xmlns="http://www.w3.org/2000/svg">
<path d="M13.3837 14.7978L13.3836 14.7978L13.3868 14.8008C13.5754 14.983 13.828 15.0838 14.0902 15.0815C14.3524 15.0792 14.6032 14.974 14.7886 14.7886C14.974 14.6032 15.0792 14.3524 15.0814 14.0902C15.0837 13.828 14.9829 13.5754 14.8008 13.3868L14.8008 13.3868L14.7977 13.3837L12.2131 10.7991C12.9044 9.8589 13.3358 8.75154 13.4618 7.58873C13.5958 6.35205 13.379 5.10263 12.836 3.98346C12.2931 2.86428 11.4461 1.92056 10.3919 1.2603C9.33765 0.600039 8.11884 0.249916 6.87493 0.25C5.8185 0.25009 4.77742 0.502813 3.83854 0.987085C2.89965 1.47136 2.09019 2.17313 1.47768 3.03387C0.865176 3.8946 0.467388 4.88933 0.317506 5.93506C0.167624 6.9808 0.269994 8.04721 0.616075 9.04534C0.962157 10.0435 1.54191 10.9444 2.30698 11.6728C3.07204 12.4013 4.00022 12.9363 5.01409 13.2331C6.02796 13.5299 7.0981 13.58 8.13525 13.3791C9.09948 13.1924 10.0092 12.7938 10.7991 12.2132L13.3837 14.7978ZM2.24995 6.875C2.24995 5.64837 2.73722 4.47199 3.60458 3.60463C4.47193 2.73728 5.64832 2.25 6.87495 2.25C8.10157 2.25 9.27796 2.73728 10.1453 3.60463C11.0127 4.47199 11.4999 5.64837 11.4999 6.875C11.4999 8.10163 11.0127 9.27801 10.1453 10.1454C9.27796 11.0127 8.10157 11.5 6.87495 11.5C5.64832 11.5 4.47193 11.0127 3.60458 10.1454C2.73722 9.27801 2.24995 8.10163 2.24995 6.875Z" fill="#FFB800" stroke="#FFB800" stroke-width="0.5"/>
</svg>
