<svg width="26" height="26" viewBox="0 0 26 26" fill="none" xmlns="http://www.w3.org/2000/svg">
<path d="M18.625 6.33333C18.625 9.62539 15.9587 12.2917 12.6667 12.2917C9.37461 12.2917 6.70833 9.62539 6.70833 6.33333C6.70833 3.04127 9.37461 0.375 12.6667 0.375C15.9587 0.375 18.625 3.04127 18.625 6.33333ZM0.375 22.1667C0.375 21.2515 0.830475 20.4221 1.63901 19.6759C2.45009 18.9273 3.59124 18.288 4.88747 17.7687C7.48053 16.7299 10.5998 16.2083 12.6667 16.2083C14.7335 16.2083 17.8528 16.7299 20.4459 17.7687C21.7421 18.288 22.8832 18.9273 23.6943 19.6759C24.5029 20.4221 24.9583 21.2515 24.9583 22.1667V23.75C24.9583 24.4137 24.4137 24.9583 23.75 24.9583H1.58333C0.919607 24.9583 0.375 24.4137 0.375 23.75V22.1667Z" fill="#FFB800" stroke="#FFB800" stroke-width="0.75"/>
</svg>
