<svg width="26" height="25" viewBox="0 0 26 25" fill="none" xmlns="http://www.w3.org/2000/svg">
<path d="M25.3333 23.3542V9.89583C25.3333 9.65003 25.2761 9.4076 25.1662 9.18775C25.0562 8.96789 24.8966 8.77665 24.7 8.62917L13.6167 0.316666C13.3426 0.111115 13.0093 0 12.6667 0C12.3241 0 11.9907 0.111115 11.7167 0.316666L0.633334 8.62917C0.43669 8.77665 0.277084 8.96789 0.167157 9.18775C0.0572296 9.4076 0 9.65003 0 9.89583V23.3542C0 23.7741 0.166815 24.1768 0.463748 24.4738C0.76068 24.7707 1.16341 24.9375 1.58333 24.9375H7.91667C8.33659 24.9375 8.73932 24.7707 9.03625 24.4738C9.33319 24.1768 9.5 23.7741 9.5 23.3542V18.6042C9.5 18.1842 9.66682 17.7815 9.96375 17.4846C10.2607 17.1876 10.6634 17.0208 11.0833 17.0208H14.25C14.6699 17.0208 15.0727 17.1876 15.3696 17.4846C15.6665 17.7815 15.8333 18.1842 15.8333 18.6042V23.3542C15.8333 23.7741 16.0001 24.1768 16.2971 24.4738C16.594 24.7707 16.9967 24.9375 17.4167 24.9375H23.75C24.1699 24.9375 24.5727 24.7707 24.8696 24.4738C25.1665 24.1768 25.3333 23.7741 25.3333 23.3542Z" fill="#FFDE8A"/>
</svg>
