<svg width="29" height="29" viewBox="0 0 29 29" fill="none" xmlns="http://www.w3.org/2000/svg">
<path fill-rule="evenodd" clip-rule="evenodd" d="M12.8993 2.9091e-08C10.8422 0.000175274 8.81496 0.492266 6.98674 1.43522C5.15852 2.37817 3.58231 3.74463 2.38962 5.42061C1.19694 7.09659 0.422353 9.03347 0.130499 11.0697C-0.161355 13.1059 0.0379821 15.1824 0.71188 17.1258C1.38578 19.0693 2.5147 20.8235 4.00445 22.242C5.4942 23.6605 7.30158 24.7022 9.2758 25.2801C11.25 25.8581 13.3338 25.9555 15.3534 25.5644C17.373 25.1732 19.2697 24.3048 20.8854 23.0316L26.428 28.574C26.7142 28.8504 27.0976 29.0034 27.4955 28.9999C27.8934 28.9965 28.2741 28.8369 28.5555 28.5555C28.8369 28.2741 28.9965 27.8935 28.9999 27.4956C29.0034 27.0976 28.8504 26.7143 28.574 26.4281L23.0314 20.8857C24.5308 18.9835 25.4645 16.6976 25.7254 14.2896C25.9864 11.8816 25.5641 9.44881 24.5069 7.2696C23.4497 5.09039 21.8003 3.25283 19.7475 1.9672C17.6947 0.681579 15.3214 -0.000162604 12.8993 2.9091e-08ZM3.03428 12.8999C3.03428 10.2836 4.07363 7.77452 5.92367 5.92454C7.77371 4.07457 10.2829 3.03526 12.8993 3.03526C15.5156 3.03526 18.0248 4.07457 19.8749 5.92454C21.7249 7.77452 22.7643 10.2836 22.7643 12.8999C22.7643 15.5161 21.7249 18.0252 19.8749 19.8752C18.0248 21.7252 15.5156 22.7645 12.8993 22.7645C10.2829 22.7645 7.77371 21.7252 5.92367 19.8752C4.07363 18.0252 3.03428 15.5161 3.03428 12.8999Z" fill="#FFB800"/>
</svg>
