<svg width="27" height="26" viewBox="0 0 27 26" fill="none" xmlns="http://www.w3.org/2000/svg">
<path d="M19.4583 6.66666C19.4583 9.95872 16.792 12.625 13.5 12.625C10.2079 12.625 7.54165 9.95872 7.54165 6.66666C7.54165 3.3746 10.2079 0.708328 13.5 0.708328C16.792 0.708328 19.4583 3.3746 19.4583 6.66666ZM1.20831 22.5C1.20831 21.5848 1.66379 20.7554 2.47232 20.0092C3.2834 19.2606 4.42456 18.6213 5.72079 18.1021C8.31384 17.0633 11.4331 16.5417 13.5 16.5417C15.5669 16.5417 18.6861 17.0633 21.2792 18.1021C22.5754 18.6213 23.7166 19.2606 24.5276 20.0092C25.3362 20.7554 25.7916 21.5848 25.7916 22.5V24.0833C25.7916 24.7471 25.247 25.2917 24.5833 25.2917H2.41665C1.75292 25.2917 1.20831 24.7471 1.20831 24.0833V22.5Z" fill="#FFDE8A" stroke="#FFDE8A" stroke-width="0.75"/>
</svg>
