<svg width="54" height="77" viewBox="0 0 54 77" fill="none" xmlns="http://www.w3.org/2000/svg">
<path d="M19.5703 68.5625V69.7344H13.8516V74.3281H12.3984V69.7344H6.75781V68.5625H19.5703ZM8.35156 66.9688V60.8906H9.82031V62.7188H16.4766V60.8906H17.9609V66.9688H8.35156ZM9.82031 65.7812H16.4766V63.9062H9.82031V65.7812ZM33.4141 71.3438V72.5781H20.6016V71.3438H26.2422V68.1094H22.0703V61.4531H31.8828V68.1094H27.7109V71.3438H33.4141ZM23.5078 66.9375H30.4297V62.6406H23.5078V66.9375ZM46.0234 60.3281V68.2344H44.5547V60.3281H46.0234ZM35.2891 67.2969V61.1406H36.7734V66.0469C39.0312 66.0312 41.0078 65.875 43.1172 65.4219L43.3203 66.6562C41.0078 67.125 38.8984 67.2891 36.4453 67.2969H35.2891ZM36.8516 74.1406V68.875H46.0234V74.1406H36.8516ZM38.3047 72.9531H44.5703V70.0469H38.3047V72.9531Z" fill="#FFB800"/>
<path d="M36 9C36 6.525 38.025 4.5 40.5 4.5C42.975 4.5 45 6.525 45 9C45 11.475 42.975 13.5 40.5 13.5C38.025 13.5 36 11.475 36 9ZM43 49.5C44.1046 49.5 45 48.6046 45 47.5V38C45 36.8954 45.8954 36 47 36H47.8617C49.2235 36 50.1871 34.6686 49.7615 33.375L45 18.9C44.325 17.1 42.75 15.75 40.725 15.75H40.5C38.475 15.75 36.9 17.1 36.225 18.9L34.7537 23.1505C34.4341 24.0737 34.8505 25.0717 35.5915 25.7084C37.25 27.1336 38.25 29.215 38.25 31.725V47.5C38.25 48.6046 39.1454 49.5 40.25 49.5H43ZM28.125 25.875C29.925 25.875 31.5 24.3 31.5 22.5C31.5 20.7 29.925 19.125 28.125 19.125C26.325 19.125 24.75 20.7 24.75 22.5C24.75 24.3 26.325 25.875 28.125 25.875ZM12.375 13.5C14.85 13.5 16.875 11.475 16.875 9C16.875 6.525 14.85 4.5 12.375 4.5C9.9 4.5 7.875 6.525 7.875 9C7.875 11.475 9.9 13.5 12.375 13.5ZM14.875 49.5C15.9796 49.5 16.875 48.6046 16.875 47.5V35.4375C16.875 34.5055 17.6305 33.75 18.5625 33.75V33.75C19.4945 33.75 20.25 32.9945 20.25 32.0625V20.25C20.25 17.775 18.225 15.75 15.75 15.75H9C6.525 15.75 4.5 17.775 4.5 20.25V32.0625C4.5 32.9945 5.25552 33.75 6.1875 33.75V33.75C7.11948 33.75 7.875 34.5055 7.875 35.4375V47.5C7.875 48.6046 8.77043 49.5 9.875 49.5H14.875ZM29.5 49.5C30.6046 49.5 31.5 48.6046 31.5 47.5V41.625C31.5 41.0037 32.0037 40.5 32.625 40.5V40.5C33.2463 40.5 33.75 39.9963 33.75 39.375V31.5C33.75 29.7 32.175 28.125 30.375 28.125H25.875C24.075 28.125 22.5 29.7 22.5 31.5V39.375C22.5 39.9963 23.0037 40.5 23.625 40.5V40.5C24.2463 40.5 24.75 41.0037 24.75 41.625V47.5C24.75 48.6046 25.6454 49.5 26.75 49.5H29.5Z" fill="#FFB800"/>
</svg>
