<svg width="318" height="163" viewBox="0 0 318 163" fill="none" xmlns="http://www.w3.org/2000/svg">
<g filter="url(#filter0_d_109_40)">
<rect x="5" y="1" width="308" height="153" rx="5.33066" fill="white" stroke="#FFD568" stroke-width="2"/>
<path d="M151.57 107.562V108.734H145.852V113.328H144.398V108.734H138.758V107.562H151.57ZM140.352 105.969V99.8906H141.82V101.719H148.477V99.8906H149.961V105.969H140.352ZM141.82 104.781H148.477V102.906H141.82V104.781ZM165.414 110.344V111.578H152.602V110.344H158.242V107.109H154.07V100.453H163.883V107.109H159.711V110.344H165.414ZM155.508 105.938H162.43V101.641H155.508V105.938ZM178.023 99.3281V107.234H176.555V99.3281H178.023ZM167.289 106.297V100.141H168.773V105.047C171.031 105.031 173.008 104.875 175.117 104.422L175.32 105.656C173.008 106.125 170.898 106.289 168.445 106.297H167.289ZM168.852 113.141V107.875H178.023V113.141H168.852ZM170.305 111.953H176.57V109.047H170.305V111.953Z" fill="#FFB800"/>
<path d="M168 48C168 45.525 170.025 43.5 172.5 43.5C174.975 43.5 177 45.525 177 48C177 50.475 174.975 52.5 172.5 52.5C170.025 52.5 168 50.475 168 48ZM175 88.5C176.105 88.5 177 87.6046 177 86.5V77C177 75.8954 177.895 75 179 75H179.862C181.223 75 182.187 73.6686 181.762 72.375L177 57.9C176.325 56.1 174.75 54.75 172.725 54.75H172.5C170.475 54.75 168.9 56.1 168.225 57.9L166.754 62.1505C166.434 63.0737 166.851 64.0717 167.592 64.7084C169.25 66.1336 170.25 68.215 170.25 70.725V86.5C170.25 87.6046 171.145 88.5 172.25 88.5H175ZM160.125 64.875C161.925 64.875 163.5 63.3 163.5 61.5C163.5 59.7 161.925 58.125 160.125 58.125C158.325 58.125 156.75 59.7 156.75 61.5C156.75 63.3 158.325 64.875 160.125 64.875ZM144.375 52.5C146.85 52.5 148.875 50.475 148.875 48C148.875 45.525 146.85 43.5 144.375 43.5C141.9 43.5 139.875 45.525 139.875 48C139.875 50.475 141.9 52.5 144.375 52.5ZM146.875 88.5C147.98 88.5 148.875 87.6046 148.875 86.5V74.4375C148.875 73.5055 149.631 72.75 150.562 72.75V72.75C151.494 72.75 152.25 71.9945 152.25 71.0625V59.25C152.25 56.775 150.225 54.75 147.75 54.75H141C138.525 54.75 136.5 56.775 136.5 59.25V71.0625C136.5 71.9945 137.256 72.75 138.188 72.75V72.75C139.119 72.75 139.875 73.5055 139.875 74.4375V86.5C139.875 87.6046 140.77 88.5 141.875 88.5H146.875ZM161.5 88.5C162.605 88.5 163.5 87.6046 163.5 86.5V80.625C163.5 80.0037 164.004 79.5 164.625 79.5V79.5C165.246 79.5 165.75 78.9963 165.75 78.375V70.5C165.75 68.7 164.175 67.125 162.375 67.125H157.875C156.075 67.125 154.5 68.7 154.5 70.5V78.375C154.5 78.9963 155.004 79.5 155.625 79.5V79.5C156.246 79.5 156.75 80.0037 156.75 80.625V86.5C156.75 87.6046 157.645 88.5 158.75 88.5H161.5Z" fill="#FFB800"/>
</g>
<defs>
<filter id="filter0_d_109_40" x="0" y="0" width="318" height="163" filterUnits="userSpaceOnUse" color-interpolation-filters="sRGB">
<feFlood flood-opacity="0" result="BackgroundImageFix"/>
<feColorMatrix in="SourceAlpha" type="matrix" values="0 0 0 0 0 0 0 0 0 0 0 0 0 0 0 0 0 0 127 0" result="hardAlpha"/>
<feOffset dy="4"/>
<feGaussianBlur stdDeviation="2"/>
<feComposite in2="hardAlpha" operator="out"/>
<feColorMatrix type="matrix" values="0 0 0 0 0 0 0 0 0 0 0 0 0 0 0 0 0 0 0.25 0"/>
<feBlend mode="normal" in2="BackgroundImageFix" result="effect1_dropShadow_109_40"/>
<feBlend mode="normal" in="SourceGraphic" in2="effect1_dropShadow_109_40" result="shape"/>
</filter>
</defs>
</svg>
