<svg width="310" height="155" viewBox="0 0 310 155" fill="none" xmlns="http://www.w3.org/2000/svg">
<rect x="1" y="1" width="308" height="153" rx="5.33066" fill="white" stroke="#FFD568" stroke-width="2"/>
<path d="M150.031 100.625V102H141.656V100.625H144.984V99.2031H146.719V100.625H150.031ZM145.844 102.547C147.891 102.547 149.281 103.578 149.297 105.125C149.281 106.672 147.891 107.703 145.844 107.703C143.797 107.703 142.375 106.672 142.375 105.125C142.375 103.578 143.797 102.547 145.844 102.547ZM145.844 103.859C144.766 103.859 144.062 104.328 144.062 105.125C144.062 105.922 144.766 106.375 145.844 106.359C146.922 106.375 147.641 105.922 147.641 105.125C147.641 104.328 146.922 103.859 145.844 103.859ZM152.781 99.2656V103.016H154.75V104.438H152.781V108.109H151.047V99.2656H152.781ZM152.781 108.766V113.391H151.047V110.156H143.375V108.766H152.781ZM159.875 101.891C159.875 103.422 160.766 104.953 162.625 105.656L161.703 106.984C160.445 106.5 159.57 105.602 159.062 104.5C158.547 105.766 157.625 106.844 156.281 107.406L155.344 106.078C157.281 105.219 158.188 103.453 158.203 101.891V100.141H159.875V101.891ZM167.547 99.2812V107.938H165.891V104.266H164.484V107.5H162.859V99.5469H164.484V102.844H165.891V99.2812H167.547ZM162.781 108.172C165.734 108.172 167.609 109.141 167.625 110.766C167.609 112.391 165.734 113.375 162.781 113.375C159.797 113.375 157.938 112.391 157.938 110.766C157.938 109.141 159.797 108.172 162.781 108.172ZM162.781 109.484C160.828 109.484 159.672 109.938 159.672 110.766C159.672 111.609 160.828 112.047 162.781 112.047C164.719 112.047 165.875 111.609 165.875 110.766C165.875 109.938 164.719 109.484 162.781 109.484Z" fill="#FFB800"/>
<path d="M175.784 50.899L155.534 44.149C155.187 44.0335 154.813 44.0335 154.466 44.149L134.216 50.899C133.88 51.011 133.588 51.2259 133.381 51.5132C133.174 51.8006 133.062 52.1458 133.063 52.5V69.375C133.063 69.8226 133.24 70.2518 133.557 70.5682C133.873 70.8847 134.302 71.0625 134.75 71.0625C135.198 71.0625 135.627 70.8847 135.943 70.5682C136.26 70.2518 136.438 69.8226 136.438 69.375V54.8414L143.523 57.2018C141.64 60.2431 141.042 63.9072 141.858 67.3895C142.675 70.8717 144.84 73.8876 147.879 75.7748C144.082 77.2641 140.8 79.9577 138.399 83.6407C138.274 83.8263 138.188 84.0348 138.144 84.2541C138.101 84.4735 138.101 84.6993 138.146 84.9185C138.19 85.1376 138.278 85.3458 138.403 85.5308C138.529 85.7158 138.69 85.874 138.877 85.9962C139.065 86.1183 139.274 86.2021 139.494 86.2425C139.714 86.2829 139.94 86.2791 140.159 86.2315C140.377 86.1839 140.584 86.0933 140.767 85.965C140.95 85.8368 141.106 85.6733 141.226 85.4843C144.405 80.6074 149.425 77.8125 155 77.8125C160.575 77.8125 165.595 80.6074 168.774 85.4843C169.022 85.8522 169.404 86.1078 169.839 86.196C170.273 86.2843 170.725 86.1979 171.096 85.9557C171.468 85.7135 171.729 85.3349 171.823 84.9017C171.918 84.4685 171.838 84.0155 171.601 83.6407C169.2 79.9577 165.905 77.2641 162.121 75.7748C165.157 73.8877 167.32 70.8738 168.136 67.394C168.953 63.9143 168.356 60.2528 166.477 57.2123L175.784 54.1116C176.12 53.9996 176.412 53.7847 176.619 53.4974C176.826 53.21 176.938 52.8648 176.938 52.5106C176.938 52.1563 176.826 51.8111 176.619 51.5237C176.412 51.2364 176.12 51.0215 175.784 50.9095V50.899ZM165.125 64.3125C165.125 65.9132 164.746 67.4912 164.019 68.9171C163.291 70.3429 162.236 71.5759 160.94 72.515C159.644 73.4541 158.143 74.0724 156.561 74.3192C154.98 74.5661 153.362 74.4345 151.842 73.9351C150.321 73.4358 148.94 72.583 147.812 71.4467C146.685 70.3104 145.843 68.9229 145.356 67.3982C144.868 65.8735 144.749 64.255 145.009 62.6754C145.268 61.0958 145.898 59.6002 146.847 58.3113L154.466 60.8426C154.813 60.9581 155.187 60.9581 155.534 60.8426L163.153 58.3113C164.435 60.0495 165.126 62.1527 165.125 64.3125Z" fill="#FFB800"/>
</svg>
