<svg width="42" height="57" viewBox="0 0 42 57" fill="none" xmlns="http://www.w3.org/2000/svg">
<path d="M5.71094 42.8906C5.71875 44.7891 6.97656 46.6172 9.08594 47.3594L8.27344 48.5156C6.75 47.9297 5.60156 46.7734 5 45.3281C4.39844 46.9375 3.20312 48.2109 1.55469 48.8438L0.757812 47.6719C2.9375 46.8984 4.23438 44.9531 4.24219 42.8438V41.1875H5.71094V42.8906ZM3.30469 54.0312V49.6094H4.80469V52.8281H12.7578V54.0312H3.30469ZM8.00781 44.75V43.5312H10.9609V40.3438H12.4453V50.7812H10.9609V44.75H8.00781ZM18.8828 43.0156C18.8828 44.5469 19.8594 46.0938 21.6797 46.7812L20.8984 47.9219C19.5938 47.4219 18.6797 46.4688 18.1797 45.3203C17.6641 46.6172 16.7109 47.7422 15.3516 48.3281L14.5391 47.1719C16.4297 46.3516 17.4453 44.5703 17.4453 43.0156V41.2031H18.8828V43.0156ZM17.1172 51.7656C17.1016 50.1719 18.9219 49.2266 21.8516 49.2188C24.7734 49.2266 26.6094 50.1719 26.6172 51.7656C26.6094 53.3594 24.7734 54.3047 21.8516 54.2969C18.9219 54.3047 17.1016 53.3594 17.1172 51.7656ZM18.5859 51.7656C18.5703 52.6562 19.8125 53.1719 21.8516 53.1562C23.8828 53.1719 25.125 52.6562 25.1328 51.7656C25.125 50.8672 23.8828 50.3516 21.8516 50.3594C19.8125 50.3516 18.5703 50.8672 18.5859 51.7656ZM22.1172 48.5156V40.5938H23.4922V43.9844H25.1328V40.3438H26.5391V48.9531H25.1328V45.2031H23.4922V48.5156H22.1172ZM40.0234 40.3281V48.2344H38.5547V40.3281H40.0234ZM29.2891 47.2969V41.1406H30.7734V46.0469C33.0312 46.0312 35.0078 45.875 37.1172 45.4219L37.3203 46.6562C35.0078 47.125 32.8984 47.2891 30.4453 47.2969H29.2891ZM30.8516 54.1406V48.875H40.0234V54.1406H30.8516ZM32.3047 52.9531H38.5703V50.0469H32.3047V52.9531Z" fill="#FFB800"/>
<g clip-path="url(#clip0_112_53)">
<path d="M14 22C13.8507 22 13.7013 22.0219 13.5588 22.0681C12.7488 22.3312 11.8969 22.5 11 22.5C10.1032 22.5 9.25129 22.3312 8.44067 22.0681C8.29817 22.0219 8.14942 22 8.00004 22C4.12129 22 0.979415 25.155 1.00004 29.0387C1.00879 30.68 2.35816 32 4.00004 32H18C19.6419 32 20.9913 30.68 21 29.0387C21.0207 25.155 17.8788 22 14 22ZM11 20C14.3138 20 17 17.3138 17 14C17 10.6862 14.3138 8 11 8C7.68629 8 5.00004 10.6862 5.00004 14C5.00004 17.3138 7.68629 20 11 20ZM38 0H14C12.3457 0 11 1.39062 11 3.09938V6C12.4638 6 13.8188 6.42375 15 7.1125V4H37V22H33V18H25V22H20.235C21.4288 23.0431 22.305 24.4206 22.7157 26H38C39.6544 26 41 24.6094 41 22.9006V3.09938C41 1.39062 39.6544 0 38 0Z" fill="#FFB800"/>
</g>
<defs>
<clipPath id="clip0_112_53">
<rect width="40" height="32" fill="white" transform="translate(1)"/>
</clipPath>
</defs>
</svg>
