<svg width="310" height="155" viewBox="0 0 310 155" fill="none" xmlns="http://www.w3.org/2000/svg">
<rect x="1" y="1" width="308" height="153" rx="5.33066" fill="white" stroke="#FFD568" stroke-width="2"/>
<path d="M139.711 91.8906C139.719 93.7891 140.977 95.6172 143.086 96.3594L142.273 97.5156C140.75 96.9297 139.602 95.7734 139 94.3281C138.398 95.9375 137.203 97.2109 135.555 97.8438L134.758 96.6719C136.938 95.8984 138.234 93.9531 138.242 91.8438V90.1875H139.711V91.8906ZM137.305 103.031V98.6094H138.805V101.828H146.758V103.031H137.305ZM142.008 93.75V92.5312H144.961V89.3438H146.445V99.7812H144.961V93.75H142.008ZM152.883 92.0156C152.883 93.5469 153.859 95.0938 155.68 95.7812L154.898 96.9219C153.594 96.4219 152.68 95.4688 152.18 94.3203C151.664 95.6172 150.711 96.7422 149.352 97.3281L148.539 96.1719C150.43 95.3516 151.445 93.5703 151.445 92.0156V90.2031H152.883V92.0156ZM151.117 100.766C151.102 99.1719 152.922 98.2266 155.852 98.2188C158.773 98.2266 160.609 99.1719 160.617 100.766C160.609 102.359 158.773 103.305 155.852 103.297C152.922 103.305 151.102 102.359 151.117 100.766ZM152.586 100.766C152.57 101.656 153.812 102.172 155.852 102.156C157.883 102.172 159.125 101.656 159.133 100.766C159.125 99.8672 157.883 99.3516 155.852 99.3594C153.812 99.3516 152.57 99.8672 152.586 100.766ZM156.117 97.5156V89.5938H157.492V92.9844H159.133V89.3438H160.539V97.9531H159.133V94.2031H157.492V97.5156H156.117ZM174.023 89.3281V97.2344H172.555V89.3281H174.023ZM163.289 96.2969V90.1406H164.773V95.0469C167.031 95.0312 169.008 94.875 171.117 94.4219L171.32 95.6562C169.008 96.125 166.898 96.2891 164.445 96.2969H163.289ZM164.852 103.141V97.875H174.023V103.141H164.852ZM166.305 101.953H172.57V99.0469H166.305V101.953Z" fill="#FFB800"/>
<g clip-path="url(#clip0_109_25)">
<path d="M148 71C147.851 71 147.701 71.0219 147.559 71.0681C146.749 71.3312 145.897 71.5 145 71.5C144.103 71.5 143.251 71.3312 142.441 71.0681C142.298 71.0219 142.149 71 142 71C138.121 71 134.979 74.155 135 78.0387C135.009 79.68 136.358 81 138 81H152C153.642 81 154.991 79.68 155 78.0387C155.021 74.155 151.879 71 148 71ZM145 69C148.314 69 151 66.3138 151 63C151 59.6862 148.314 57 145 57C141.686 57 139 59.6862 139 63C139 66.3138 141.686 69 145 69ZM172 49H148C146.346 49 145 50.3906 145 52.0994V55C146.464 55 147.819 55.4238 149 56.1125V53H171V71H167V67H159V71H154.235C155.429 72.0431 156.305 73.4206 156.716 75H172C173.654 75 175 73.6094 175 71.9006V52.0994C175 50.3906 173.654 49 172 49Z" fill="#FFB800"/>
</g>
<defs>
<clipPath id="clip0_109_25">
<rect width="40" height="32" fill="white" transform="translate(135 49)"/>
</clipPath>
</defs>
</svg>
