<svg width="310" height="155" viewBox="0 0 310 155" fill="none" xmlns="http://www.w3.org/2000/svg">
<rect width="310" height="155" rx="6.33066" fill="#FFB800"/>
<path d="M147.57 107.562V108.734H141.852V113.328H140.398V108.734H134.758V107.562H147.57ZM137.82 99.8906V101.719H144.477V99.8906H145.961V105.969H136.352V99.8906H137.82ZM137.82 104.781H144.477V102.906H137.82V104.781ZM161.414 110.344V111.578H148.602V110.344H154.242V107.109H150.07V100.453H159.883V107.109H155.711V110.344H161.414ZM151.508 101.641V105.938H158.43V101.641H151.508ZM174.023 99.3281V107.234H172.555V99.3281H174.023ZM164.773 100.141V105.047C167.031 105.031 169.016 104.867 171.117 104.422L171.32 105.656C169.008 106.125 166.898 106.297 164.445 106.297H163.289V100.141H164.773ZM174.023 107.875V113.141H164.852V107.875H174.023ZM166.305 109.047V111.953H172.57V109.047H166.305Z" fill="white"/>
<path d="M164 48C164 45.525 166.025 43.5 168.5 43.5C170.975 43.5 173 45.525 173 48C173 50.475 170.975 52.5 168.5 52.5C166.025 52.5 164 50.475 164 48ZM171 88.5C172.105 88.5 173 87.6046 173 86.5V77C173 75.8954 173.895 75 175 75H175.862C177.223 75 178.187 73.6686 177.762 72.375L173 57.9C172.325 56.1 170.75 54.75 168.725 54.75H168.5C166.475 54.75 164.9 56.1 164.225 57.9L162.754 62.1505C162.434 63.0737 162.851 64.0717 163.592 64.7084C165.25 66.1336 166.25 68.215 166.25 70.725V86.5C166.25 87.6046 167.145 88.5 168.25 88.5H171ZM156.125 64.875C157.925 64.875 159.5 63.3 159.5 61.5C159.5 59.7 157.925 58.125 156.125 58.125C154.325 58.125 152.75 59.7 152.75 61.5C152.75 63.3 154.325 64.875 156.125 64.875ZM140.375 52.5C142.85 52.5 144.875 50.475 144.875 48C144.875 45.525 142.85 43.5 140.375 43.5C137.9 43.5 135.875 45.525 135.875 48C135.875 50.475 137.9 52.5 140.375 52.5ZM142.875 88.5C143.98 88.5 144.875 87.6046 144.875 86.5V74.4375C144.875 73.5055 145.631 72.75 146.562 72.75V72.75C147.494 72.75 148.25 71.9945 148.25 71.0625V59.25C148.25 56.775 146.225 54.75 143.75 54.75H137C134.525 54.75 132.5 56.775 132.5 59.25V71.0625C132.5 71.9945 133.256 72.75 134.188 72.75V72.75C135.119 72.75 135.875 73.5055 135.875 74.4375V86.5C135.875 87.6046 136.77 88.5 137.875 88.5H142.875ZM157.5 88.5C158.605 88.5 159.5 87.6046 159.5 86.5V80.625C159.5 80.0037 160.004 79.5 160.625 79.5V79.5C161.246 79.5 161.75 78.9963 161.75 78.375V70.5C161.75 68.7 160.175 67.125 158.375 67.125H153.875C152.075 67.125 150.5 68.7 150.5 70.5V78.375C150.5 78.9963 151.004 79.5 151.625 79.5V79.5C152.246 79.5 152.75 80.0037 152.75 80.625V86.5C152.75 87.6046 153.645 88.5 154.75 88.5H157.5Z" fill="white"/>
</svg>
