<svg width="54" height="77" viewBox="0 0 54 77" fill="none" xmlns="http://www.w3.org/2000/svg">
<path d="M22.0312 61.625V63H13.6562V61.625H16.9844V60.2031H18.7188V61.625H22.0312ZM14.375 66.125C14.375 64.5781 15.8047 63.5469 17.8438 63.5469C19.8828 63.5469 21.2891 64.5781 21.2969 66.125C21.2891 67.6719 19.8828 68.7031 17.8438 68.7031C15.8047 68.7031 14.375 67.6719 14.375 66.125ZM15.375 71.1562V69.7656H24.7812V74.3906H23.0469V71.1562H15.375ZM16.0625 66.125C16.0547 66.9219 16.7734 67.3672 17.8438 67.3594C18.9141 67.3672 19.6406 66.9219 19.6406 66.125C19.6406 65.3281 18.9141 64.8594 17.8438 64.8594C16.7734 64.8594 16.0547 65.3281 16.0625 66.125ZM23.0469 69.1094V60.2656H24.7812V64.0156H26.75V65.4375H24.7812V69.1094H23.0469ZM31.875 62.8906C31.8828 64.4141 32.7734 65.9531 34.625 66.6562L33.7031 67.9844C32.4453 67.5078 31.5703 66.6016 31.0625 65.5078C30.5469 66.7656 29.625 67.8438 28.2812 68.4062L27.3438 67.0781C29.2891 66.2188 30.1953 64.4531 30.2031 62.8906V61.1406H31.875V62.8906ZM29.9375 71.7656C29.9297 70.1406 31.8047 69.1719 34.7812 69.1719C37.7344 69.1719 39.6172 70.1406 39.625 71.7656C39.6172 73.3984 37.7344 74.375 34.7812 74.375C31.8047 74.375 29.9297 73.3984 29.9375 71.7656ZM31.6719 71.7656C31.6641 72.6016 32.8203 73.0547 34.7812 73.0469C36.7109 73.0547 37.8672 72.6016 37.875 71.7656C37.8672 70.9375 36.7109 70.4844 34.7812 70.4844C32.8203 70.4844 31.6641 70.9375 31.6719 71.7656ZM34.8594 68.5V60.5469H36.4844V63.8438H37.8906V60.2812H39.5469V68.9375H37.8906V65.2656H36.4844V68.5H34.8594Z" fill="white"/>
<path d="M47.7837 11.899L27.5337 5.14899C27.1873 5.03351 26.8127 5.03351 26.4663 5.14899L6.21633 11.899C5.88032 12.011 5.58807 12.2259 5.38098 12.5132C5.1739 12.8006 5.06247 13.1458 5.0625 13.5V30.375C5.0625 30.8226 5.24029 31.2518 5.55676 31.5682C5.87322 31.8847 6.30245 32.0625 6.75 32.0625C7.19755 32.0625 7.62677 31.8847 7.94324 31.5682C8.25971 31.2518 8.4375 30.8226 8.4375 30.375V15.8414L15.5229 18.2018C13.6404 21.2431 13.0418 24.9072 13.8585 28.3895C14.6751 31.8717 16.8404 34.8876 19.8787 36.7748C16.0819 38.2641 12.7997 40.9577 10.3992 44.6407C10.2744 44.8263 10.1877 45.0348 10.1441 45.2541C10.1006 45.4735 10.1011 45.6993 10.1455 45.9185C10.19 46.1376 10.2777 46.3458 10.4033 46.5308C10.5289 46.7158 10.6901 46.874 10.8774 46.9962C11.0647 47.1183 11.2745 47.2021 11.4944 47.2425C11.7144 47.2829 11.9402 47.2791 12.1587 47.2315C12.3772 47.1839 12.5841 47.0933 12.7672 46.965C12.9504 46.8368 13.1063 46.6733 13.2258 46.4843C16.4046 41.6074 21.4249 38.8125 27 38.8125C32.5751 38.8125 37.5954 41.6074 40.7742 46.4843C41.0217 46.8522 41.4041 47.1078 41.8386 47.196C42.2731 47.2843 42.7248 47.1979 43.0962 46.9557C43.4676 46.7135 43.7287 46.3349 43.8231 45.9017C43.9175 45.4685 43.8377 45.0155 43.6008 44.6407C41.2003 40.9577 37.9055 38.2641 34.1212 36.7748C37.1567 34.8877 39.3199 31.8738 40.1364 28.394C40.953 24.9143 40.3563 21.2528 38.4771 18.2123L47.7837 15.1116C48.1198 14.9996 48.4121 14.7847 48.6192 14.4974C48.8264 14.21 48.9379 13.8648 48.9379 13.5106C48.9379 13.1563 48.8264 12.8111 48.6192 12.5237C48.4121 12.2364 48.1198 12.0215 47.7837 11.9095V11.899ZM37.125 25.3125C37.1255 26.9132 36.7464 28.4912 36.0189 29.9171C35.2914 31.3429 34.2362 32.5759 32.9399 33.515C31.6435 34.4541 30.143 35.0724 28.5615 35.3192C26.9799 35.5661 25.3624 35.4345 23.8415 34.9351C22.3207 34.4358 20.9399 33.583 19.8125 32.4467C18.6851 31.3104 17.8431 29.9229 17.3557 28.3982C16.8684 26.8735 16.7494 25.255 17.0087 23.6754C17.268 22.0958 17.8981 20.6002 18.8473 19.3113L26.4663 21.8426C26.8127 21.9581 27.1873 21.9581 27.5337 21.8426L35.1527 19.3113C36.4347 21.0495 37.1259 23.1527 37.125 25.3125Z" fill="white"/>
</svg>
