<svg width="310" height="155" viewBox="0 0 310 155" fill="none" xmlns="http://www.w3.org/2000/svg">
<rect width="310" height="155" rx="6.33066" fill="#FFB800"/>
<path d="M139.711 91.8906C139.711 93.7812 140.977 95.625 143.086 96.3594L142.273 97.5156C140.742 96.9297 139.602 95.7734 139.008 94.3125C138.398 95.9375 137.203 97.2188 135.555 97.8438L134.758 96.6719C136.93 95.8906 138.227 93.9531 138.242 91.8438V90.1875H139.711V91.8906ZM146.445 89.3438V99.7812H144.961V93.75H142.008V92.5312H144.961V89.3438H146.445ZM146.758 101.828V103.031H137.305V98.6094H138.805V101.828H146.758ZM152.883 92.0156C152.883 93.5469 153.867 95.0938 155.68 95.7812L154.898 96.9219C153.594 96.4219 152.68 95.4688 152.18 94.3125C151.664 95.6172 150.703 96.75 149.352 97.3281L148.539 96.1719C150.43 95.3438 151.445 93.5781 151.445 92.0156V90.2031H152.883V92.0156ZM160.539 89.3438V97.9531H159.133V94.2031H157.492V97.5156H156.117V89.5938H157.492V92.9844H159.133V89.3438H160.539ZM155.852 98.2188C158.773 98.2188 160.602 99.1719 160.617 100.766C160.602 102.359 158.773 103.312 155.852 103.297C152.93 103.312 151.102 102.359 151.117 100.766C151.102 99.1719 152.93 98.2188 155.852 98.2188ZM155.852 99.3594C153.82 99.3594 152.57 99.875 152.586 100.766C152.57 101.656 153.82 102.172 155.852 102.156C157.883 102.172 159.117 101.656 159.133 100.766C159.117 99.875 157.883 99.3594 155.852 99.3594ZM174.023 89.3281V97.2344H172.555V89.3281H174.023ZM164.773 90.1406V95.0469C167.031 95.0312 169.016 94.8672 171.117 94.4219L171.32 95.6562C169.008 96.125 166.898 96.2969 164.445 96.2969H163.289V90.1406H164.773ZM174.023 97.875V103.141H164.852V97.875H174.023ZM166.305 99.0469V101.953H172.57V99.0469H166.305Z" fill="white"/>
<g clip-path="url(#clip0_109_35)">
<path d="M148 71C147.851 71 147.701 71.0219 147.559 71.0681C146.749 71.3312 145.897 71.5 145 71.5C144.103 71.5 143.251 71.3312 142.441 71.0681C142.298 71.0219 142.149 71 142 71C138.121 71 134.979 74.155 135 78.0387C135.009 79.68 136.358 81 138 81H152C153.642 81 154.991 79.68 155 78.0387C155.021 74.155 151.879 71 148 71ZM145 69C148.314 69 151 66.3138 151 63C151 59.6862 148.314 57 145 57C141.686 57 139 59.6862 139 63C139 66.3138 141.686 69 145 69ZM172 49H148C146.346 49 145 50.3906 145 52.0994V55C146.464 55 147.819 55.4238 149 56.1125V53H171V71H167V67H159V71H154.235C155.429 72.0431 156.305 73.4206 156.716 75H172C173.654 75 175 73.6094 175 71.9006V52.0994C175 50.3906 173.654 49 172 49Z" fill="white"/>
</g>
<defs>
<clipPath id="clip0_109_35">
<rect width="40" height="32" fill="white" transform="translate(135 49)"/>
</clipPath>
</defs>
</svg>
