<svg width="51" height="50" viewBox="0 0 51 50" fill="none" xmlns="http://www.w3.org/2000/svg">
<g filter="url(#filter0_i_359_1060)">
<g filter="url(#filter1_i_359_1060)">
<path fill-rule="evenodd" clip-rule="evenodd" d="M31.1278 7C31.9607 7.00003 32.7772 7.23196 33.4857 7.66982C34.1943 8.10768 34.7669 8.73417 35.1395 9.47911L37.2119 13.6224C37.5768 13.4729 37.9356 13.3114 38.2885 13.138C38.6434 12.9607 39.0542 12.9317 39.4306 13.0573C39.8069 13.1829 40.1179 13.4529 40.2951 13.8078C40.4724 14.1628 40.5014 14.5736 40.3758 14.9499C40.2502 15.3262 39.9802 15.6372 39.6253 15.8145C39.2659 15.9744 38.9045 16.13 38.5412 16.281L39.9781 19.1563C40.29 19.7798 40.4523 20.4673 40.4521 21.1644V24.9429C40.4531 25.5742 40.3203 26.1985 40.0626 26.7747C39.8049 27.351 39.428 27.8661 38.9569 28.2863V30.1763C38.9569 30.7711 38.7206 31.3416 38.3 31.7622C37.8793 32.1828 37.3089 32.4191 36.714 32.4191C36.1192 32.4191 35.5487 32.1828 35.1281 31.7622C34.7075 31.3416 34.4712 30.7711 34.4712 30.1763V29.4286H16.5282V30.1763C16.5282 30.7711 16.2919 31.3416 15.8713 31.7622C15.4507 32.1828 14.8802 32.4191 14.2854 32.4191C13.6905 32.4191 13.1201 32.1828 12.6994 31.7622C12.2788 31.3416 12.0425 30.7711 12.0425 30.1763V28.2863C11.1244 27.4639 10.5473 26.2707 10.5473 24.9429V21.1629C10.5476 20.4668 10.7098 19.7804 11.0213 19.1578L12.4462 16.3049C12.0859 16.1524 11.7285 15.9909 11.3771 15.816C11.024 15.6364 10.7556 15.3252 10.6297 14.9496C10.5038 14.574 10.5306 14.1639 10.7043 13.8078C10.792 13.632 10.9135 13.4753 11.0618 13.3464C11.2101 13.2176 11.3824 13.1193 11.5688 13.0571C11.7551 12.9949 11.9519 12.97 12.1479 12.9839C12.3438 12.9978 12.5352 13.0501 12.7109 13.138C13.0638 13.3129 13.4241 13.4729 13.7875 13.6224L15.8599 9.48061C16.2323 8.73539 16.8048 8.10859 17.5134 7.67046C18.2219 7.23233 19.0385 7.00017 19.8716 7H31.1278ZM18.7711 20.4572C18.1763 20.4572 17.6058 20.6935 17.1852 21.1141C16.7645 21.5347 16.5282 22.1052 16.5282 22.7C16.5282 23.2949 16.7645 23.8654 17.1852 24.286C17.6058 24.7066 18.1763 24.9429 18.7711 24.9429C19.366 24.9429 19.9364 24.7066 20.3571 24.286C20.7777 23.8654 21.014 23.2949 21.014 22.7C21.014 22.1052 20.7777 21.5347 20.3571 21.1141C19.9364 20.6935 19.366 20.4572 18.7711 20.4572ZM32.2283 20.4572C31.6334 20.4572 31.063 20.6935 30.6423 21.1141C30.2217 21.5347 29.9854 22.1052 29.9854 22.7C29.9854 23.2949 30.2217 23.8654 30.6423 24.286C31.063 24.7066 31.6334 24.9429 32.2283 24.9429C32.8231 24.9429 33.3936 24.7066 33.8142 24.286C34.2349 23.8654 34.4712 23.2949 34.4712 22.7C34.4712 22.1052 34.2349 21.5347 33.8142 21.1141C33.3936 20.6935 32.8231 20.4572 32.2283 20.4572ZM31.1278 9.99049H19.8716C19.6255 9.99045 19.3832 10.0512 19.1662 10.1672C18.9492 10.2833 18.7642 10.4511 18.6276 10.6559L18.5349 10.8174L16.6359 14.6123C18.9505 15.3061 22.0696 15.9715 25.4997 15.9715C28.7025 15.9715 31.6317 15.3913 33.888 14.7498L34.362 14.6123L32.4645 10.8174C32.3545 10.5973 32.1918 10.4078 31.991 10.2656C31.7902 10.1235 31.5573 10.0331 31.3132 10.0024L31.1293 9.99049H31.1278Z" fill="#35332E"/>
</g>
<g filter="url(#filter2_i_359_1060)">
<path d="M24.8678 13.6273C24.8678 12.8214 25.1879 12.0485 25.7578 11.4786C26.3277 10.9087 27.1006 10.5886 27.9065 10.5886C28.7124 10.5886 29.4853 10.9087 30.0552 11.4786C30.6251 12.0485 30.9452 12.8214 30.9452 13.6273C30.9452 14.4332 30.6251 15.2061 30.0552 15.776C29.4853 16.3459 28.7124 16.666 27.9065 16.666C27.1006 16.666 26.3277 16.3459 25.7578 15.776C25.1879 15.2061 24.8678 14.4332 24.8678 13.6273ZM22.747 23.2056C22.6837 23.2309 22.6267 23.2563 22.5634 23.2816L22.0569 23.5032C21.0187 23.9653 20.2211 24.8453 19.8602 25.9215L19.6956 26.4153C19.3411 27.4788 18.1952 28.0486 17.1317 27.6941C16.0681 27.3395 15.4984 26.1937 15.8529 25.1301L16.0175 24.6363C16.7392 22.4776 18.3345 20.7177 20.411 19.7934L20.9174 19.5718C22.2342 18.9894 23.6586 18.6855 25.102 18.6855C27.9255 18.6855 30.4704 20.3821 31.5529 22.984L32.5279 25.3201L33.8826 25.9974C34.8829 26.4976 35.288 27.713 34.7879 28.7133C34.2878 29.7135 33.0723 30.1187 32.0721 29.6186L30.3754 28.7766C29.7234 28.4474 29.2106 27.903 28.932 27.2256L28.3243 25.7695L27.1025 29.9161L30.2362 33.3347C30.578 33.7082 30.8186 34.1577 30.9452 34.6515L32.4013 40.482C32.6735 41.5645 32.0151 42.6661 30.9262 42.9383C29.8373 43.2105 28.7421 42.5521 28.4699 41.4633L27.0772 35.8859L22.6014 31.005C21.6644 29.9858 21.3163 28.5614 21.6708 27.2256L22.7407 23.2056H22.747ZM19.0879 35.7846L20.6705 31.8343C20.8035 32.0242 20.9554 32.2015 21.1137 32.3787L23.6903 35.1896L22.7723 37.4813C22.6204 37.8611 22.3925 38.2093 22.1013 38.5005L18.1952 42.4065C17.4039 43.1979 16.1188 43.1979 15.3274 42.4065C14.5361 41.6152 14.5361 40.3301 15.3274 39.5387L19.0879 35.7846Z" fill="#FFB800"/>
</g>
</g>
<defs>
<filter id="filter0_i_359_1060" x="0.5" y="0" width="51.4815" height="52.963" filterUnits="userSpaceOnUse" color-interpolation-filters="sRGB">
<feFlood flood-opacity="0" result="BackgroundImageFix"/>
<feBlend mode="normal" in="SourceGraphic" in2="BackgroundImageFix" result="shape"/>
<feColorMatrix in="SourceAlpha" type="matrix" values="0 0 0 0 0 0 0 0 0 0 0 0 0 0 0 0 0 0 127 0" result="hardAlpha"/>
<feOffset dx="1.48148" dy="2.96296"/>
<feGaussianBlur stdDeviation="1.48148"/>
<feComposite in2="hardAlpha" operator="arithmetic" k2="-1" k3="1"/>
<feColorMatrix type="matrix" values="0 0 0 0 0.98 0 0 0 0 1 0 0 0 0 0 0 0 0 0.25 0"/>
<feBlend mode="normal" in2="shape" result="effect1_innerShadow_359_1060"/>
</filter>
<filter id="filter1_i_359_1060" x="10.5473" y="7" width="30.9055" height="26.4191" filterUnits="userSpaceOnUse" color-interpolation-filters="sRGB">
<feFlood flood-opacity="0" result="BackgroundImageFix"/>
<feBlend mode="normal" in="SourceGraphic" in2="BackgroundImageFix" result="shape"/>
<feColorMatrix in="SourceAlpha" type="matrix" values="0 0 0 0 0 0 0 0 0 0 0 0 0 0 0 0 0 0 127 0" result="hardAlpha"/>
<feOffset dx="1" dy="1"/>
<feGaussianBlur stdDeviation="1.3"/>
<feComposite in2="hardAlpha" operator="arithmetic" k2="-1" k3="1"/>
<feColorMatrix type="matrix" values="0 0 0 0 1 0 0 0 0 0.780002 0 0 0 0 0 0 0 0 0.25 0"/>
<feBlend mode="normal" in2="shape" result="effect1_innerShadow_359_1060"/>
</filter>
<filter id="filter2_i_359_1060" x="14.7339" y="10.5886" width="21.7497" height="35.3744" filterUnits="userSpaceOnUse" color-interpolation-filters="sRGB">
<feFlood flood-opacity="0" result="BackgroundImageFix"/>
<feBlend mode="normal" in="SourceGraphic" in2="BackgroundImageFix" result="shape"/>
<feColorMatrix in="SourceAlpha" type="matrix" values="0 0 0 0 0 0 0 0 0 0 0 0 0 0 0 0 0 0 127 0" result="hardAlpha"/>
<feOffset dx="1.48148" dy="2.96296"/>
<feGaussianBlur stdDeviation="1.48148"/>
<feComposite in2="hardAlpha" operator="arithmetic" k2="-1" k3="1"/>
<feColorMatrix type="matrix" values="0 0 0 0 0.98 0 0 0 0 1 0 0 0 0 0 0 0 0 0.25 0"/>
<feBlend mode="normal" in2="shape" result="effect1_innerShadow_359_1060"/>
</filter>
</defs>
</svg>
