<svg width="51" height="50" viewBox="0 0 51 50" fill="none" xmlns="http://www.w3.org/2000/svg">
<g clip-path="url(#clip0_359_1065)" filter="url(#filter0_i_359_1065)">
<path d="M41.1 34.1H36.42L27.32 6.8C26.8 4.98 24.2 4.98 23.68 6.8L14.58 34.1H9.90001C9.12001 34.1 8.60001 34.62 8.60001 35.4V38C8.60001 38.78 9.12001 39.3 9.90001 39.3H41.1C41.88 39.3 42.4 38.78 42.4 38V35.4C42.4 34.62 41.88 34.1 41.1 34.1ZM24.2 13.3H26.8L28.62 18.5H22.64L24.2 13.3ZM20.82 23.7H30.18L32 28.9H19L20.82 23.7Z" fill="#FF5C00"/>
</g>
<defs>
<filter id="filter0_i_359_1065" x="6" y="5.5" width="40.4815" height="41.963" filterUnits="userSpaceOnUse" color-interpolation-filters="sRGB">
<feFlood flood-opacity="0" result="BackgroundImageFix"/>
<feBlend mode="normal" in="SourceGraphic" in2="BackgroundImageFix" result="shape"/>
<feColorMatrix in="SourceAlpha" type="matrix" values="0 0 0 0 0 0 0 0 0 0 0 0 0 0 0 0 0 0 127 0" result="hardAlpha"/>
<feOffset dx="1.48148" dy="2.96296"/>
<feGaussianBlur stdDeviation="1.48148"/>
<feComposite in2="hardAlpha" operator="arithmetic" k2="-1" k3="1"/>
<feColorMatrix type="matrix" values="0 0 0 0 1 0 0 0 0 0.780002 0 0 0 0 0 0 0 0 0.25 0"/>
<feBlend mode="normal" in2="shape" result="effect1_innerShadow_359_1065"/>
</filter>
<clipPath id="clip0_359_1065">
<rect width="39" height="39" fill="white" transform="translate(6 5.5)"/>
</clipPath>
</defs>
</svg>
