<svg width="51" height="50" viewBox="0 0 51 50" fill="none" xmlns="http://www.w3.org/2000/svg">
<path d="M16.437 26.6935H45.2581L43.5953 28.9516H14.7742L16.437 26.6935Z" fill="#DDDBD6"/>
<path d="M13.0498 31.2097H41.871L40.2082 33.4677H11.3871L13.0498 31.2097Z" fill="#DDDBD6"/>
<path d="M9.66276 35.7258H38.4839L36.8211 37.9839H8L9.66276 35.7258Z" fill="#DDDBD6"/>
<path d="M7.4047 40.2419H36.2258L34.5631 42.5H5.74194L7.4047 40.2419Z" fill="#DDDBD6"/>
<g clip-path="url(#clip0_330_600)" filter="url(#filter0_i_330_600)">
<path d="M26.6291 10.0403C26.6291 9.36659 26.8967 8.72045 27.3731 8.24404C27.8495 7.76764 28.4956 7.5 29.1694 7.5C29.8431 7.5 30.4893 7.76764 30.9657 8.24404C31.4421 8.72045 31.7097 9.36659 31.7097 10.0403C31.7097 10.7141 31.4421 11.3602 30.9657 11.8366C30.4893 12.313 29.8431 12.5806 29.1694 12.5806C28.4956 12.5806 27.8495 12.313 27.3731 11.8366C26.8967 11.3602 26.6291 10.7141 26.6291 10.0403ZM24.8561 18.0476C24.8032 18.0688 24.7556 18.09 24.7026 18.1111L24.2793 18.2964C23.4113 18.6827 22.7445 19.4183 22.4428 20.318L22.3052 20.7308C22.0088 21.62 21.0509 22.0963 20.1618 21.7999C19.2727 21.5035 18.7964 20.5456 19.0928 19.6565L19.2304 19.2437C19.8337 17.439 21.1674 15.9677 22.9033 15.1951L23.3266 15.0098C24.4274 14.5229 25.6182 14.2689 26.8249 14.2689C29.1853 14.2689 31.3128 15.6872 32.2178 17.8624L33.0328 19.8153L34.1654 20.3816C35.0015 20.7996 35.3403 21.8158 34.9222 22.652C34.5041 23.4882 33.4879 23.8269 32.6517 23.4088L31.2334 22.7049C30.6883 22.4297 30.2596 21.9745 30.0267 21.4083L29.5187 20.191L28.4973 23.6575L31.117 26.5154C31.4028 26.8276 31.6039 27.2034 31.7097 27.6162L32.9269 32.4904C33.1545 33.3954 32.6041 34.3163 31.6938 34.5439C30.7835 34.7714 29.868 34.221 29.6404 33.3107L28.4761 28.6482L24.7344 24.5678C23.9511 23.7157 23.6601 22.5249 23.9564 21.4083L24.8508 18.0476H24.8561ZM21.7972 28.5635L23.1202 25.2611C23.2314 25.4199 23.3584 25.568 23.4907 25.7162L25.6447 28.066L24.8773 29.9819C24.7503 30.2994 24.5598 30.5905 24.3163 30.8339L21.0509 34.0993C20.3894 34.7608 19.315 34.7608 18.6535 34.0993C17.992 33.4378 17.992 32.3634 18.6535 31.7019L21.7972 28.5635Z" fill="#FFB800"/>
</g>
<defs>
<filter id="filter0_i_330_600" x="18.1613" y="7.5" width="17.9355" height="28.0968" filterUnits="userSpaceOnUse" color-interpolation-filters="sRGB">
<feFlood flood-opacity="0" result="BackgroundImageFix"/>
<feBlend mode="normal" in="SourceGraphic" in2="BackgroundImageFix" result="shape"/>
<feColorMatrix in="SourceAlpha" type="matrix" values="0 0 0 0 0 0 0 0 0 0 0 0 0 0 0 0 0 0 127 0" result="hardAlpha"/>
<feOffset dx="1" dy="1"/>
<feGaussianBlur stdDeviation="1.48148"/>
<feComposite in2="hardAlpha" operator="arithmetic" k2="-1" k3="1"/>
<feColorMatrix type="matrix" values="0 0 0 0 1 0 0 0 0 0.96 0 0 0 0 0 0 0 0 0.5 0"/>
<feBlend mode="normal" in2="shape" result="effect1_innerShadow_330_600"/>
</filter>
<clipPath id="clip0_330_600">
<rect width="16.9355" height="27.0968" fill="white" transform="translate(18.1613 7.5)"/>
</clipPath>
</defs>
</svg>
