<svg width="22" height="19" viewBox="0 0 22 19" fill="none" xmlns="http://www.w3.org/2000/svg">
<path d="M2.84253 18.75H19.1575C20.8259 18.75 21.8659 16.9408 21.0317 15.5L12.8742 1.40582C12.04 -0.035013 9.96003 -0.035013 9.12586 1.40582L0.968363 15.5C0.134196 16.9408 1.1742 18.75 2.84253 18.75ZM11 11.1667C10.4042 11.1667 9.9167 10.6792 9.9167 10.0833V7.91665C9.9167 7.32082 10.4042 6.83332 11 6.83332C11.5959 6.83332 12.0834 7.32082 12.0834 7.91665V10.0833C12.0834 10.6792 11.5959 11.1667 11 11.1667ZM12.0834 15.5H9.9167V13.3333H12.0834V15.5Z" fill="#FFB800"/>
</svg>
