<svg width="51" height="50" viewBox="0 0 51 50" fill="none" xmlns="http://www.w3.org/2000/svg">
<g filter="url(#filter0_i_330_607)">
<path d="M6 23.0313V39.7656C6 40.3095 6.43631 40.75 6.975 40.75H13.8V21.0625H7.95C6.87323 21.0625 6 21.9441 6 23.0313ZM27.9375 20.0781H26.475V17.6172C26.475 17.3453 26.2568 17.125 25.9875 17.125H25.0125C24.7432 17.125 24.525 17.3453 24.525 17.6172V21.5547C24.525 21.8266 24.7432 22.0469 25.0125 22.0469H27.9375C28.2068 22.0469 28.425 21.8266 28.425 21.5547V20.5703C28.425 20.2984 28.2068 20.0781 27.9375 20.0781ZM36.3316 16.1431L26.5816 9.58039C26.2613 9.36495 25.8849 9.25 25.5 9.25C25.1151 9.25 24.7387 9.36495 24.4184 9.58039L14.6684 16.1431C14.4013 16.3228 14.1823 16.5664 14.0308 16.8521C13.8794 17.1378 13.8001 17.4568 13.8 17.7808V40.75H21.6V31.8906C21.6 31.3468 22.0363 30.9063 22.575 30.9063H28.425C28.9637 30.9063 29.4 31.3468 29.4 31.8906V40.75H37.2V17.7815C37.2 17.1232 36.874 16.5079 36.3316 16.1431ZM25.5 25C22.8078 25 20.625 22.7962 20.625 20.0781C20.625 17.36 22.8078 15.1563 25.5 15.1563C28.1922 15.1563 30.375 17.36 30.375 20.0781C30.375 22.7962 28.1922 25 25.5 25ZM43.05 21.0625H37.2V40.75H44.025C44.5637 40.75 45 40.3095 45 39.7656V23.0313C45 21.9441 44.1268 21.0625 43.05 21.0625Z" fill="#8CCE36"/>
</g>
<defs>
<filter id="filter0_i_330_607" x="0.5" y="0" width="51.4815" height="52.963" filterUnits="userSpaceOnUse" color-interpolation-filters="sRGB">
<feFlood flood-opacity="0" result="BackgroundImageFix"/>
<feBlend mode="normal" in="SourceGraphic" in2="BackgroundImageFix" result="shape"/>
<feColorMatrix in="SourceAlpha" type="matrix" values="0 0 0 0 0 0 0 0 0 0 0 0 0 0 0 0 0 0 127 0" result="hardAlpha"/>
<feOffset dx="1.48148" dy="2.96296"/>
<feGaussianBlur stdDeviation="1.48148"/>
<feComposite in2="hardAlpha" operator="arithmetic" k2="-1" k3="1"/>
<feColorMatrix type="matrix" values="0 0 0 0 0.98 0 0 0 0 1 0 0 0 0 0 0 0 0 0.25 0"/>
<feBlend mode="normal" in2="shape" result="effect1_innerShadow_330_607"/>
</filter>
</defs>
</svg>
